PathFileType	4	(X/Y/Z)	./resultDataOpenSim/trcMotMarkerGrf/sub10/qtm-03-06.trc
DataRate	CameraRate	NumFrames	NumMarkers	Units	OrigDataRate	OrigDataStartFrame	OrigNumFrames
250.000000	250.000000	10	24	m	250.000000	379	504
Frame#	Time	L.Toe.Tip			R.Toe.Tip			L.Ankle.Lat			R.Ankle.Lat			L.Ankle.Med			R.Ankle.Med			L.Heel			R.Heel			L.Knee.Lat			R.Knee.Lat			L.Knee.Med			R.Knee.Med			L.Thigh.Upper			R.Thigh.Upper			L.ASIS			R.ASIS			V.Sacral			L.Acromium			R.Acromium			C7			L.Elbow			R.Elbow			L.Wrist.Lat			R.Wrist.Lat
		X1	Y1	Z1	X2	Y2	Z2	X3	Y3	Z3	X4	Y4	Z4	X5	Y5	Z5	X6	Y6	Z6	X7	Y7	Z7	X8	Y8	Z8	X9	Y9	Z9	X10	Y10	Z10	X11	Y11	Z11	X12	Y12	Z12	X13	Y13	Z13	X14	Y14	Z14	X15	Y15	Z15	X16	Y16	Z16	X17	Y17	Z17	X18	Y18	Z18	X19	Y19	Z19	X20	Y20	Z20	X21	Y21	Z21	X22	Y22	Z22	X23	Y23	Z23	X24	Y24	Z24

379	1.512	0.68641329	0.078239162	-0.13294412	0.81949697	0.038079576	0.04939423	0.60958367	0.19030323	-0.15209703	0.67655822	0.05533318	0.085395208	0.63957331	0.19715632	-0.072771187	0.69924274	0.08040522	0.0015370715	0.54467241	0.20663286	-0.10137496	0.62541459	0.032081718	0.039872288	0.86391091	0.47321889	-0.1762629	0.76897554	0.44716576	0.11361871	0.8868378	0.44120905	-0.057974873	0.77265721	0.45230311	-0.014767484	0.74794767	0.83712973	-0.20519291	0.74150652	0.86315579	0.17317894	0.79825851	0.95363114	-0.13952099	0.80525677	0.95832143	0.10318642	0.6008024	0.95959568	-0.018537651	0.73867399	1.4298492	-0.16070525	0.69442381	1.4186875	0.15987798	0.63752229	1.4478529	-0.014154965	0.66842242	1.1018449	-0.2555309	0.60714194	1.074735	0.19675292	0.79387731	0.89350918	-0.26589091	0.74158432	0.89015862	0.28612939
380	1.516	0.70469077	0.077313423	-0.1327686	0.81950398	0.038067464	0.049393833	0.62441699	0.18698748	-0.15151247	0.67656655	0.055409289	0.085366991	0.65377807	0.19449667	-0.072003697	0.69937036	0.080481745	0.0014735962	0.55906491	0.20149254	-0.10086628	0.62561268	0.032292977	0.039686214	0.87336365	0.47517557	-0.17546908	0.76961643	0.44720721	0.11414134	0.89680064	0.44347492	-0.057161847	0.77392333	0.45224931	-0.01401338	0.75509799	0.83836154	-0.20528392	0.74556131	0.86359128	0.17329153	0.8044463	0.95462557	-0.1385939	0.80973799	0.95894107	0.10374812	0.60632972	0.96016867	-0.019768799	0.74342313	1.4305241	-0.16044815	0.69920951	1.4194102	0.16010166	0.64243312	1.4484342	-0.013886816	0.67036315	1.1033644	-0.25516864	0.61414544	1.0747846	0.19856538	0.79444712	0.8938439	-0.26807991	0.7518011	0.89197406	0.28649951
381	1.52	0.72297034	0.076369033	-0.13260594	0.81951742	0.038055602	0.049385103	0.63938317	0.18355282	-0.15093375	0.67657061	0.05549551	0.08532379	0.66785994	0.19174613	-0.071159324	0.69930891	0.080564454	0.0014446366	0.57366816	0.19622313	-0.10036744	0.62569917	0.032507944	0.039527481	0.88275916	0.47705285	-0.17469685	0.77026228	0.44724646	0.11464718	0.90647026	0.44567494	-0.056465187	0.77511825	0.45218218	-0.013277605	0.76232503	0.83951333	-0.20525795	0.74956068	0.86397385	0.17342722	0.81061426	0.9555645	-0.13769453	0.81420817	0.95948768	0.10430917	0.61184285	0.96056434	-0.021061072	0.74818389	1.4311126	-0.16019449	0.70399683	1.4200573	0.16032696	0.64734189	1.4489385	-0.013637537	0.6716484	1.1049333	-0.25403707	0.62090795	1.0746052	0.20050688	0.79508962	0.89416159	-0.2702165	0.76200899	0.8937757	0.28685623
382	1.524	0.7411804	0.075384897	-0.13243443	0.81953656	0.038032155	0.049367036	0.65448184	0.18000933	-0.15035716	0.67656902	0.055590375	0.085262033	0.68201998	0.18887901	-0.070305479	0.6991838	0.080663279	0.0014125792	0.58842721	0.19084051	-0.099866543	0.62572021	0.032720596	0.039415275	0.89213886	0.47883921	-0.17393356	0.77091966	0.44728477	0.1151319	0.91556195	0.44780056	-0.055964714	0.7762305	0.45208205	-0.01261696	0.76963135	0.84058112	-0.20516933	0.753502	0.86431164	0.17358631	0.8167759	0.95646348	-0.13685179	0.81866622	0.95995521	0.10487349	0.61729565	0.96083529	-0.02235191	0.75295512	1.4316249	-0.15994279	0.70878282	1.4206295	0.16055282	0.65225173	1.4493848	-0.013390073	0.67274594	1.1064546	-0.2526323	0.62751419	1.0742644	0.20257693	0.79578352	0.89446632	-0.27232345	0.77220949	0.89556342	0.28720266
383	1.528	0.7593176	0.074330496	-0.13225234	0.81955876	0.037985386	0.049338797	0.669723	0.17636836	-0.14978433	0.67656582	0.055687177	0.085176958	0.69641859	0.18589907	-0.069474907	0.69913625	0.08077503	0.0013415655	0.60335985	0.1853555	-0.09941018	0.62577386	0.032936655	0.039409455	0.90146961	0.48052551	-0.17317035	0.77159258	0.44732189	0.11559084	0.92405695	0.44982506	-0.055676274	0.7774376	0.45193421	-0.012019522	0.77700624	0.84157257	-0.20505102	0.75737956	0.86460575	0.17376471	0.82295616	0.95731827	-0.13607347	0.82311038	0.96034071	0.10544462	0.62272055	0.96101751	-0.023593469	0.75773712	1.432063	-0.15969187	0.71355883	1.421124	0.16077261	0.65716966	1.4497619	-0.013140282	0.674011	1.1078563	-0.25133886	0.63415179	1.073946	0.20469832	0.79649679	0.89475992	-0.27442688	0.78240349	0.89733501	0.2875376
384	1.532	0.77744052	0.073223524	-0.13205763	0.81958401	0.037927099	0.049302909	0.6851167	0.17263686	-0.14921988	0.67656882	0.055779968	0.08506689	0.71104547	0.18283496	-0.068636149	0.699169	0.080883469	0.0012431964	0.61851052	0.17977327	-0.099020758	0.62594596	0.033139538	0.039565687	0.91070356	0.48213164	-0.17240584	0.77228644	0.44735715	0.11602447	0.93227647	0.45171534	-0.055513369	0.77883155	0.45178856	-0.011491831	0.7843959	0.84249402	-0.20490757	0.76118333	0.86484626	0.17395331	0.82916973	0.95810587	-0.13533408	0.8275398	0.96064555	0.10602665	0.62820721	0.96113096	-0.024786475	0.76253184	1.4324168	-0.15944204	0.71832233	1.4215373	0.16098676	0.66209776	1.4500472	-0.012899328	0.67556551	1.1091162	-0.25029143	0.6409017	1.0737762	0.20679403	0.79722048	0.89503872	-0.27653224	0.79258737	0.89908739	0.28786035
385	1.536	0.7956411	0.072130451	-0.13184346	0.81961756	0.0378864	0.04926281	0.70066215	0.16881653	-0.14866823	0.67658177	0.055867326	0.084935311	0.72586552	0.17969318	-0.06778277	0.69922561	0.080982655	0.0011496955	0.63389023	0.17408468	-0.098595538	0.62623043	0.033265047	0.039810378	0.91980519	0.48367469	-0.17164532	0.77300702	0.4473871	0.11643702	0.94066779	0.45346771	-0.055282593	0.78030368	0.4517219	-0.011067022	0.79176624	0.8433499	-0.20474208	0.76490464	0.8650195	0.17414282	0.83537361	0.95880735	-0.13458887	0.83195435	0.96087335	0.10662537	0.63378634	0.96120418	-0.025937899	0.76734268	1.4326794	-0.15919706	0.72307512	1.4218669	0.16119935	0.66703138	1.4502335	-0.012676743	0.67739499	1.1102408	-0.2494763	0.64772174	1.0737064	0.20880718	0.79796256	0.89529654	-0.27862967	0.80275643	0.90082063	0.28817275
386	1.54	0.81398225	0.071100979	-0.13160666	0.81966314	0.03787662	0.049218738	0.71635386	0.16490925	-0.1481302	0.67659995	0.055950722	0.084789903	0.74092647	0.17645831	-0.066974074	0.69927989	0.081084001	0.0010640439	0.64950006	0.1682798	-0.097980674	0.62650736	0.033261108	0.039934667	0.92875651	0.48513688	-0.1708943	0.77375639	0.44740484	0.11683267	0.94968906	0.45511265	-0.054718084	0.78171919	0.45173342	-0.010726134	0.79913424	0.84414565	-0.20456124	0.76854829	0.86512196	0.17432588	0.84148808	0.95941882	-0.13380248	0.8363538	0.96102752	0.10724709	0.63938684	0.96127529	-0.027008923	0.77217443	1.4328541	-0.15896321	0.72782874	1.4221149	0.16141242	0.67196565	1.4503269	-0.012472471	0.67945229	1.1112431	-0.24884325	0.65459941	1.0735908	0.21067158	0.79873281	0.89552815	-0.28070463	0.81291016	0.90253809	0.28847507
387	1.544	0.83245183	0.070125371	-0.13135239	0.81971411	0.037885054	0.04917164	0.73219283	0.16092971	-0.14759949	0.67661596	0.056031508	0.084639752	0.75626509	0.17313325	-0.066253879	0.69930636	0.081193172	0.00094516307	0.66534301	0.16238851	-0.097173917	0.62664627	0.03316782	0.03979323	0.93755966	0.48648261	-0.17015392	0.77453578	0.44740394	0.11721815	0.95965308	0.45667586	-0.05364035	0.78304029	0.45175454	-0.01041771	0.80652032	0.84487798	-0.20436691	0.77214531	0.86516819	0.1744975	0.84749961	0.95994274	-0.1329784	0.84073582	0.96111047	0.10789465	0.6449517	0.9613808	-0.027902808	0.77703126	1.4329485	-0.15874287	0.73259757	1.4222851	0.16162819	0.67689949	1.4503358	-0.012281022	0.68170279	1.1121336	-0.24835495	0.66158302	1.0733311	0.21235182	0.79953367	0.8957306	-0.28274718	0.823053	0.90424016	0.28876278
388	1.548	0.85099264	0.069168651	-0.13109146	0.8197603	0.037893881	0.049126062	0.74818458	0.15690806	-0.14706671	0.67662644	0.056110632	0.084492528	0.77183762	0.1697484	-0.065602153	0.69926931	0.08129742	0.00075985185	0.68135633	0.15648619	-0.096340216	0.62663551	0.033089871	0.039452582	0.946228	0.48768648	-0.16942028	0.7753493	0.44738231	0.11760193	0.97030581	0.45815517	-0.052193109	0.78428759	0.45174	-0.010129396	0.81387496	0.84552553	-0.20414588	0.77574349	0.86518232	0.17465839	0.85348681	0.96038083	-0.13215678	0.84509625	0.96112325	0.10856545	0.65053825	0.96154557	-0.02847975	0.78191281	1.4329681	-0.15853138	0.73738232	1.4223782	0.16184563	0.6818365	1.4502703	-0.012093341	0.68412848	1.1129192	-0.24799201	0.66868833	1.0729253	0.21389101	0.80035594	0.89590261	-0.28475771	0.83318772	0.90592089	0.28903063
